<svg xmlns="http://www.w3.org/2000/svg" viewBox="0 0 24 24" color="#345b73" fill="none" stroke="currentColor" stroke-width="1.6" stroke-linecap="round" stroke-linejoin="round">
  <title>Human-Agent Collaboration</title>
  <circle cx="5.5" cy="7" r="2.2"/>
  <path d="M2.5 15v-1.2a3 3 0 0 1 6 0V15"/>
  <rect x="16" y="5" width="5.5" height="4.5" rx="1"/>
  <path d="M18.75 5V3.5m-1 8h2a1.8 1.8 0 0 1 1.8 1.8V15"/>
  <path d="M10 9h4m-1.5-1.5L14 9l-1.5 1.5M14 15h-4m1.5-1.5L10 15l1.5 1.5"/>
  <circle cx="17.8" cy="7.2" r=".35" fill="currentColor" stroke="none"/>
  <circle cx="19.7" cy="7.2" r=".35" fill="currentColor" stroke="none"/>
  <path d="M7 20h10M9 18l3 2 3-2"/>
</svg>
